<?xml version="1.0" encoding="utf-8"?>
<!-- Generator: Adobe Illustrator 18.1.1, SVG Export Plug-In . SVG Version: 6.00 Build 0)  -->
<svg version="1.1" id="Capa_1" xmlns="http://www.w3.org/2000/svg" xmlns:xlink="http://www.w3.org/1999/xlink" x="0px" y="0px"
	 viewBox="0 0 666 129.8" enable-background="new 0 0 666 129.8" xml:space="preserve">
<rect x="0" y="0" fill="none" width="666" height="129.8"/>
<g>
	<g>
		<path fill="#FFFFFF" d="M113.7,88.7c-10.5,0-19.1,8.6-19.1,19.1s8.6,19.1,19.1,19.1s19.1-8.6,19.1-19.1S124.2,88.7,113.7,88.7z
			 M113.7,120.5c-7,0-12.7-5.7-12.7-12.7c0-7,5.7-12.7,12.7-12.7c7,0,12.7,5.7,12.7,12.7S120.7,120.5,113.7,120.5z"/>
	</g>
</g>
<g>
	<g>
		<path fill="#FFFFFF" d="M221.8,88.7c-10.5,0-19.1,8.6-19.1,19.1s8.6,19.1,19.1,19.1c10.5,0,19.1-8.6,19.1-19.1
			C240.8,97.3,232.3,88.7,221.8,88.7z M221.8,120.5c-7,0-12.7-5.7-12.7-12.7c0-7,5.7-12.7,12.7-12.7c7,0,12.7,5.7,12.7,12.7
			S228.8,120.5,221.8,120.5z"/>
	</g>
</g>
<g>
	<g>
		<path fill="#FFFFFF" d="M259.4,71.1l-28.6-44.5c-0.6-0.9-1.6-1.5-2.7-1.5h-35c-1.8,0-3.2,1.4-3.2,3.2v79.4c0,1.8,1.4,3.2,3.2,3.2
			h12.7v-6.4h-9.5V31.5h30l27.2,42.2v30.8h-15.9v6.4h19.1c1.8,0,3.2-1.4,3.2-3.2v-35C259.9,72.2,259.7,71.6,259.4,71.1z"/>
	</g>
</g>
<g>
	<g>
		<path fill="#FFFFFF" d="M209,66.5V44.2h25.4v-6.4h-28.6c-1.8,0-3.2,1.4-3.2,3.2v28.6c0,1.8,1.4,3.2,3.2,3.2h47.7v-6.4L209,66.5
			L209,66.5z"/>
	</g>
</g>
<g>
	<g>
		<path fill="#FFFFFF" d="M193.2,2.9H72.4c-1.8,0-3.2,1.4-3.2,3.2v101.7c0,1.8,1.4,3.2,3.2,3.2h25.4v-6.4H75.6V9.3H190v95.3h-60.4
			v6.4h63.6c1.8,0,3.2-1.4,3.2-3.2V6.1C196.3,4.4,194.9,2.9,193.2,2.9z"/>
	</g>
</g>
<g>
	<g>
		<rect x="72.4" y="91.9" fill="#FFFFFF" width="19.1" height="6.4"/>
	</g>
</g>
<g>
	<g>
		<rect x="136" y="91.9" fill="#FFFFFF" width="54" height="6.4"/>
	</g>
</g>
<g>
	<g>
		<rect x="244" y="91.9" fill="#FFFFFF" width="12.7" height="6.4"/>
	</g>
</g>
<g>
	<g>
		<rect x="81.9" y="15.7" fill="#FFFFFF" width="111.2" height="6.4"/>
	</g>
</g>
<g>
	<g>
		<rect x="110.5" y="104.6" fill="#FFFFFF" width="6.4" height="6.4"/>
	</g>
</g>
<g>
	<g>
		<rect x="218.6" y="104.6" fill="#FFFFFF" width="6.4" height="6.4"/>
	</g>
</g>
<path fill="#FFFFFF" d="M2.6,52.1L2.6,52.1C2.6,50.4,4,49,5.8,49h64.9v6.4H5.8C4,55.3,2.6,53.9,2.6,52.1z"/>
<path fill="#FFFFFF" d="M25.3,33.1L25.3,33.1c0-1.8,1.4-3.2,3.2-3.2h42.3v6.4H28.4C26.7,36.2,25.3,34.8,25.3,33.1z"/>
<path fill="#FFFFFF" d="M40,81.1L40,81.1c0-1.8,1.4-3.2,3.2-3.2h27.5v6.4H43.2C41.4,84.3,40,82.9,40,81.1z"/>
<g>
	<path fill="#FFFFFF" d="M303.4,38.3h8.8v12c-1.4,0.5-2.8,0.8-4.2,1c-1.3,0.2-2.8,0.3-4.3,0.3c-3.6,0-6.4-1.1-8.4-3.2c-2-2.1-3-5.2-3-9.1
		c0-3.9,1.1-6.9,3.3-9.1c2.2-2.2,5.3-3.3,9.2-3.3c2.5,0,4.9,0.5,7.1,1.4l-1.4,3.3c-1.9-0.9-3.9-1.3-5.8-1.3c-2.6,0-4.6,0.8-6.1,2.4
		c-1.5,1.6-2.2,3.8-2.2,6.6c0,2.9,0.7,5.2,2,6.7s3.3,2.3,5.8,2.3c1.3,0,2.6-0.2,4.1-0.5v-6.2h-5V38.3z"/>
	<path fill="#FFFFFF" d="M326.8,32.8c0.8,0,1.4,0.1,1.9,0.2l-0.4,3.6c-0.5-0.1-1.1-0.2-1.7-0.2c-1.5,0-2.8,0.5-3.8,1.5c-1,1-1.4,2.3-1.4,3.9v9.5
		h-3.9V33.1h3l0.5,3.2h0.2c0.6-1.1,1.4-1.9,2.4-2.6C324.6,33.1,325.7,32.8,326.8,32.8z"/>
	<path fill="#FFFFFF" d="M343.4,51.3l-0.8-2.5h-0.1c-0.9,1.1-1.8,1.9-2.6,2.3c-0.9,0.4-2,0.6-3.4,0.6c-1.8,0-3.2-0.5-4.2-1.4c-1-1-1.5-2.3-1.5-4.1
		c0-1.9,0.7-3.3,2.1-4.2c1.4-1,3.5-1.5,6.4-1.6l3.1-0.1v-1c0-1.2-0.3-2-0.8-2.6c-0.5-0.6-1.4-0.9-2.5-0.9c-0.9,0-1.8,0.1-2.7,0.4
		s-1.7,0.6-2.5,1l-1.2-2.8c1-0.5,2.1-0.9,3.2-1.2c1.2-0.3,2.3-0.4,3.3-0.4c2.3,0,4.1,0.5,5.2,1.5c1.2,1,1.8,2.6,1.8,4.7v12.2H343.4z
		 M337.7,48.7c1.4,0,2.5-0.4,3.4-1.2c0.8-0.8,1.3-1.9,1.3-3.3v-1.6l-2.3,0.1c-1.8,0.1-3.1,0.4-4,0.9c-0.8,0.5-1.2,1.4-1.2,2.5
		c0,0.8,0.2,1.4,0.7,1.9C336,48.5,336.7,48.7,337.7,48.7z"/>
	<path fill="#FFFFFF" d="M358.9,51.6c-2.7,0-4.8-0.8-6.3-2.4c-1.4-1.6-2.1-3.9-2.1-6.9c0-3.1,0.7-5.4,2.2-7c1.5-1.6,3.7-2.5,6.5-2.5
		c1.9,0,3.6,0.4,5.2,1.1l-1.2,3.1c-1.6-0.6-3-1-4-1c-3.1,0-4.7,2.1-4.7,6.3c0,2,0.4,3.6,1.2,4.6c0.8,1,1.9,1.5,3.4,1.5
		c1.7,0,3.3-0.4,4.9-1.3v3.4c-0.7,0.4-1.4,0.7-2.2,0.9S360,51.6,358.9,51.6z"/>
	<path fill="#FFFFFF" d="M368,28.3c0-0.7,0.2-1.2,0.6-1.6c0.4-0.4,0.9-0.6,1.6-0.6c0.7,0,1.2,0.2,1.6,0.6c0.4,0.4,0.6,0.9,0.6,1.6
		c0,0.7-0.2,1.2-0.6,1.6c-0.4,0.4-0.9,0.6-1.6,0.6c-0.7,0-1.2-0.2-1.6-0.6C368.2,29.5,368,29,368,28.3z M372.1,51.3h-3.9V33.1h3.9
		V51.3z"/>
	<path fill="#FFFFFF" d="M388.9,51.3l-0.8-2.5H388c-0.9,1.1-1.8,1.9-2.6,2.3c-0.9,0.4-2,0.6-3.4,0.6c-1.8,0-3.2-0.5-4.2-1.4c-1-1-1.5-2.3-1.5-4.1
		c0-1.9,0.7-3.3,2.1-4.2c1.4-1,3.5-1.5,6.4-1.6l3.1-0.1v-1c0-1.2-0.3-2-0.8-2.6c-0.5-0.6-1.4-0.9-2.5-0.9c-0.9,0-1.8,0.1-2.7,0.4
		s-1.7,0.6-2.5,1l-1.2-2.8c1-0.5,2.1-0.9,3.2-1.2c1.2-0.3,2.3-0.4,3.3-0.4c2.3,0,4.1,0.5,5.2,1.5c1.2,1,1.8,2.6,1.8,4.7v12.2H388.9z
		 M383.2,48.7c1.4,0,2.5-0.4,3.4-1.2c0.8-0.8,1.3-1.9,1.3-3.3v-1.6l-2.3,0.1c-1.8,0.1-3.1,0.4-4,0.9c-0.8,0.5-1.2,1.4-1.2,2.5
		c0,0.8,0.2,1.4,0.7,1.9C381.5,48.5,382.2,48.7,383.2,48.7z"/>
	<path fill="#FFFFFF" d="M409.3,46.1c0,1.8-0.6,3.1-1.9,4.1c-1.3,0.9-3.1,1.4-5.5,1.4c-2.4,0-4.4-0.4-5.8-1.1v-3.3c2.1,1,4.1,1.5,6,1.5
		c2.4,0,3.6-0.7,3.6-2.1c0-0.5-0.1-0.8-0.4-1.1c-0.3-0.3-0.7-0.6-1.3-1s-1.4-0.7-2.5-1.1c-2.1-0.8-3.5-1.6-4.2-2.4s-1.1-1.9-1.1-3.2
		c0-1.6,0.6-2.8,1.9-3.6c1.3-0.9,3-1.3,5.1-1.3c2.1,0,4.2,0.4,6.1,1.3l-1.2,2.9c-2-0.8-3.6-1.2-4.9-1.2c-2,0-3.1,0.6-3.1,1.7
		c0,0.6,0.3,1,0.8,1.4c0.5,0.4,1.7,0.9,3.5,1.6c1.5,0.6,2.6,1.1,3.3,1.6c0.7,0.5,1.2,1,1.5,1.7S409.3,45.3,409.3,46.1z"/>
	<path fill="#FFFFFF" d="M431.4,51.6c-2.3,0-4.1-0.8-5.4-2.5h-0.2c0.2,1.5,0.2,2.5,0.2,2.8v7.4h-3.9V33.1h3.1c0.1,0.3,0.3,1.1,0.5,2.4h0.2
		c1.2-1.8,3-2.8,5.4-2.8c2.3,0,4,0.8,5.3,2.5c1.3,1.6,1.9,3.9,1.9,6.9c0,3-0.6,5.3-1.9,6.9C435.4,50.8,433.6,51.6,431.4,51.6z
		 M430.4,36c-1.5,0-2.7,0.4-3.4,1.3c-0.7,0.9-1.1,2.3-1.1,4.3v0.6c0,2.2,0.4,3.8,1.1,4.8s1.8,1.5,3.4,1.5c1.3,0,2.4-0.5,3.1-1.6
		c0.7-1.1,1.1-2.7,1.1-4.7c0-2-0.4-3.6-1.1-4.6C432.9,36.5,431.8,36,430.4,36z"/>
	<path fill="#FFFFFF" d="M459.2,42.2c0,3-0.8,5.3-2.3,6.9c-1.5,1.7-3.6,2.5-6.4,2.5c-1.7,0-3.2-0.4-4.5-1.1c-1.3-0.8-2.3-1.9-3-3.3
		c-0.7-1.4-1.1-3.1-1.1-5c0-2.9,0.8-5.2,2.3-6.9c1.5-1.7,3.6-2.5,6.4-2.5c2.6,0,4.7,0.8,6.2,2.5C458.4,37,459.2,39.3,459.2,42.2z
		 M446,42.2c0,4.2,1.5,6.3,4.6,6.3c3.1,0,4.6-2.1,4.6-6.3c0-4.1-1.5-6.2-4.6-6.2c-1.6,0-2.8,0.5-3.5,1.6S446,40.2,446,42.2z"/>
	<path fill="#FFFFFF" d="M472.8,32.8c0.8,0,1.4,0.1,1.9,0.2l-0.4,3.6c-0.5-0.1-1.1-0.2-1.7-0.2c-1.5,0-2.8,0.5-3.8,1.5c-1,1-1.4,2.3-1.4,3.9v9.5
		h-3.9V33.1h3l0.5,3.2h0.2c0.6-1.1,1.4-1.9,2.4-2.6C470.7,33.1,471.7,32.8,472.8,32.8z"/>
	<path fill="#FFFFFF" d="M493.6,48.5c0.9,0,1.9-0.1,2.8-0.4V51c-0.4,0.2-1,0.3-1.6,0.5s-1.4,0.2-2.1,0.2c-3.7,0-5.5-1.9-5.5-5.8v-9.8h-2.5v-1.7
		l2.7-1.4l1.3-3.8h2.4v4h5.2v2.9h-5.2v9.7c0,0.9,0.2,1.6,0.7,2.1C492.3,48.3,492.9,48.5,493.6,48.5z"/>
	<path fill="#FFFFFF" d="M512.9,51.3l-0.5-2.4h-0.2c-0.5,0.8-1.3,1.5-2.3,2s-2.1,0.7-3.4,0.7c-2.2,0-3.8-0.5-4.9-1.6c-1.1-1.1-1.6-2.8-1.6-5V33.1
		h3.9v11.2c0,1.4,0.3,2.4,0.9,3.1c0.6,0.7,1.5,1,2.7,1c1.6,0,2.8-0.5,3.6-1.5c0.8-1,1.1-2.6,1.1-4.9v-9h3.9v18.2H512.9z"/>
	<path fill="#FFFFFF" d="M537.5,51.6c-2.7,0-4.8-0.8-6.3-2.4c-1.4-1.6-2.1-3.9-2.1-6.9c0-3.1,0.7-5.4,2.2-7c1.5-1.6,3.7-2.5,6.5-2.5
		c1.9,0,3.6,0.4,5.2,1.1l-1.2,3.1c-1.6-0.6-3-1-4-1c-3.1,0-4.7,2.1-4.7,6.3c0,2,0.4,3.6,1.2,4.6c0.8,1,1.9,1.5,3.4,1.5
		c1.7,0,3.3-0.4,4.9-1.3v3.4c-0.7,0.4-1.4,0.7-2.2,0.9S538.6,51.6,537.5,51.6z"/>
	<path fill="#FFFFFF" d="M562.9,42.2c0,3-0.8,5.3-2.3,6.9c-1.5,1.7-3.6,2.5-6.4,2.5c-1.7,0-3.2-0.4-4.5-1.1c-1.3-0.8-2.3-1.9-3-3.3
		c-0.7-1.4-1.1-3.1-1.1-5c0-2.9,0.8-5.2,2.3-6.9c1.5-1.7,3.6-2.5,6.4-2.5c2.6,0,4.7,0.8,6.2,2.5C562.1,37,562.9,39.3,562.9,42.2z
		 M549.7,42.2c0,4.2,1.5,6.3,4.6,6.3c3.1,0,4.6-2.1,4.6-6.3c0-4.1-1.5-6.2-4.6-6.2c-1.6,0-2.8,0.5-3.5,1.6S549.7,40.2,549.7,42.2z"
		/>
	<path fill="#FFFFFF" d="M582.6,51.3h-3.9V40.1c0-1.4-0.3-2.4-0.8-3.1c-0.5-0.7-1.3-1-2.5-1c-1.5,0-2.6,0.5-3.3,1.5c-0.7,1-1,2.6-1,4.8v9h-3.9V33.1
		h3l0.5,2.4h0.2c0.5-0.9,1.2-1.5,2.2-2c1-0.5,2-0.7,3.2-0.7c2.8,0,4.6,1,5.5,2.9h0.3c0.5-0.9,1.3-1.6,2.3-2.1c1-0.5,2.1-0.8,3.3-0.8
		c2.2,0,3.7,0.5,4.7,1.6c1,1.1,1.5,2.8,1.5,5v11.8h-3.9V40.1c0-1.4-0.3-2.4-0.8-3.1c-0.5-0.7-1.4-1-2.5-1c-1.5,0-2.6,0.5-3.3,1.4
		c-0.7,0.9-1,2.4-1,4.3V51.3z"/>
	<path fill="#FFFFFF" d="M608.6,51.6c-2.3,0-4.1-0.8-5.4-2.5h-0.2c0.2,1.5,0.2,2.5,0.2,2.8v7.4h-3.9V33.1h3.1c0.1,0.3,0.3,1.1,0.5,2.4h0.2
		c1.2-1.8,3-2.8,5.4-2.8c2.3,0,4,0.8,5.3,2.5c1.3,1.6,1.9,3.9,1.9,6.9c0,3-0.6,5.3-1.9,6.9C612.7,50.8,610.9,51.6,608.6,51.6z
		 M607.7,36c-1.5,0-2.7,0.4-3.4,1.3c-0.7,0.9-1.1,2.3-1.1,4.3v0.6c0,2.2,0.4,3.8,1.1,4.8s1.8,1.5,3.4,1.5c1.3,0,2.4-0.5,3.1-1.6
		c0.7-1.1,1.1-2.7,1.1-4.7c0-2-0.4-3.6-1.1-4.6C610.1,36.5,609.1,36,607.7,36z"/>
	<path fill="#FFFFFF" d="M629.6,32.8c0.8,0,1.4,0.1,1.9,0.2l-0.4,3.6c-0.5-0.1-1.1-0.2-1.7-0.2c-1.5,0-2.8,0.5-3.8,1.5c-1,1-1.4,2.3-1.4,3.9v9.5
		h-3.9V33.1h3l0.5,3.2h0.2c0.6-1.1,1.4-1.9,2.4-2.6C627.4,33.1,628.5,32.8,629.6,32.8z"/>
	<path fill="#FFFFFF" d="M646.2,51.3l-0.8-2.5h-0.1c-0.9,1.1-1.8,1.9-2.6,2.3c-0.9,0.4-2,0.6-3.4,0.6c-1.8,0-3.2-0.5-4.2-1.4c-1-1-1.5-2.3-1.5-4.1
		c0-1.9,0.7-3.3,2.1-4.2c1.4-1,3.5-1.5,6.4-1.6l3.1-0.1v-1c0-1.2-0.3-2-0.8-2.6c-0.5-0.6-1.4-0.9-2.5-0.9c-0.9,0-1.8,0.1-2.7,0.4
		s-1.7,0.6-2.5,1l-1.2-2.8c1-0.5,2.1-0.9,3.2-1.2c1.2-0.3,2.3-0.4,3.3-0.4c2.3,0,4.1,0.5,5.2,1.5c1.2,1,1.8,2.6,1.8,4.7v12.2H646.2z
		 M640.5,48.7c1.4,0,2.5-0.4,3.4-1.2c0.8-0.8,1.3-1.9,1.3-3.3v-1.6l-2.3,0.1c-1.8,0.1-3.1,0.4-4,0.9c-0.8,0.5-1.2,1.4-1.2,2.5
		c0,0.8,0.2,1.4,0.7,1.9C638.8,48.5,639.5,48.7,640.5,48.7z"/>
</g>
<g>
	<path fill="#FFFFFF" d="M301.9,95.6H298V75h-7.1v-3.4h18V75h-7.1V95.6z"/>
	<path fill="#FFFFFF" d="M325,95.6l-0.5-2.4h-0.2c-0.5,0.8-1.3,1.5-2.3,2s-2.1,0.7-3.4,0.7c-2.2,0-3.8-0.5-4.9-1.6c-1.1-1.1-1.6-2.8-1.6-5V77.5h3.9
		v11.2c0,1.4,0.3,2.4,0.9,3.1c0.6,0.7,1.5,1,2.7,1c1.6,0,2.8-0.5,3.6-1.5c0.8-1,1.1-2.6,1.1-4.9v-9h3.9v18.2H325z"/>
	<path fill="#FFFFFF" d="M350.2,95.9c-2.8,0-5-0.8-6.6-2.5s-2.4-3.9-2.4-6.8c0-3,0.7-5.3,2.2-7c1.5-1.7,3.5-2.5,6.1-2.5c2.4,0,4.3,0.7,5.7,2.2
		c1.4,1.5,2.1,3.5,2.1,6v2.1h-12.1c0.1,1.8,0.5,3.1,1.4,4.1c0.9,0.9,2.2,1.4,3.8,1.4c1.1,0,2.1-0.1,3-0.3c0.9-0.2,1.9-0.5,3-1v3.1
		c-0.9,0.4-1.9,0.8-2.9,1C352.5,95.8,351.4,95.9,350.2,95.9z M349.5,80.1c-1.2,0-2.2,0.4-2.9,1.2c-0.7,0.8-1.2,1.9-1.3,3.4h8.2
		c0-1.5-0.4-2.6-1.1-3.4S350.7,80.1,349.5,80.1z"/>
	<path fill="#FFFFFF" d="M377.6,95.6h-3.9V84.5c0-1.4-0.3-2.4-0.8-3.1s-1.5-1-2.7-1c-1.6,0-2.8,0.5-3.6,1.4c-0.8,1-1.1,2.6-1.1,4.8v9h-3.9V77.5h3
		l0.5,2.4h0.2c0.5-0.9,1.3-1.5,2.3-2c1-0.5,2.1-0.7,3.3-0.7c4.4,0,6.5,2.2,6.5,6.6V95.6z"/>
	<path fill="#FFFFFF" d="M387.1,95.6l-6.9-18.2h4.1L388,88c0.6,1.8,1,3.2,1.1,4.3h0.1c0.1-0.8,0.5-2.2,1.1-4.3l3.7-10.6h4.1l-6.9,18.2H387.1z"/>
	<path fill="#FFFFFF" d="M400.7,72.7c0-0.7,0.2-1.2,0.6-1.6c0.4-0.4,0.9-0.6,1.6-0.6c0.7,0,1.2,0.2,1.6,0.6c0.4,0.4,0.6,0.9,0.6,1.6
		c0,0.7-0.2,1.2-0.6,1.6c-0.4,0.4-0.9,0.6-1.6,0.6c-0.7,0-1.2-0.2-1.6-0.6C400.9,73.8,400.7,73.3,400.7,72.7z M404.8,95.6h-3.9V77.5
		h3.9V95.6z"/>
	<path fill="#FFFFFF" d="M426.4,86.5c0,3-0.8,5.3-2.3,6.9c-1.5,1.7-3.6,2.5-6.4,2.5c-1.7,0-3.2-0.4-4.5-1.1c-1.3-0.8-2.3-1.9-3-3.3
		c-0.7-1.4-1.1-3.1-1.1-5c0-2.9,0.8-5.2,2.3-6.9c1.5-1.7,3.6-2.5,6.4-2.5c2.6,0,4.7,0.8,6.2,2.5C425.7,81.4,426.4,83.6,426.4,86.5z
		 M413.2,86.5c0,4.2,1.5,6.3,4.6,6.3c3.1,0,4.6-2.1,4.6-6.3c0-4.1-1.5-6.2-4.6-6.2c-1.6,0-2.8,0.5-3.5,1.6S413.2,84.5,413.2,86.5z
		 M415.3,75.2v-0.4c0.6-0.8,1.3-1.6,1.9-2.6c0.7-0.9,1.2-1.7,1.6-2.4h4.5v0.3c-0.6,0.7-1.4,1.5-2.6,2.6c-1.1,1.1-2.1,1.9-2.9,2.5
		H415.3z"/>
	<path fill="#FFFFFF" d="M443.7,95.6l-6.9-18.2h4.1l3.7,10.6c0.6,1.8,1,3.2,1.1,4.3h0.1c0.1-0.8,0.5-2.2,1.1-4.3l3.7-10.6h4.1l-6.9,18.2H443.7z"/>
	<path fill="#FFFFFF" d="M468.9,95.6l-0.8-2.5H468c-0.9,1.1-1.8,1.9-2.6,2.3c-0.9,0.4-2,0.6-3.4,0.6c-1.8,0-3.2-0.5-4.2-1.4c-1-1-1.5-2.3-1.5-4.1
		c0-1.9,0.7-3.3,2.1-4.2c1.4-1,3.5-1.5,6.4-1.6l3.1-0.1v-1c0-1.2-0.3-2-0.8-2.6c-0.5-0.6-1.4-0.9-2.5-0.9c-0.9,0-1.8,0.1-2.7,0.4
		s-1.7,0.6-2.5,1l-1.2-2.8c1-0.5,2.1-0.9,3.2-1.2c1.2-0.3,2.3-0.4,3.3-0.4c2.3,0,4.1,0.5,5.2,1.5c1.2,1,1.8,2.6,1.8,4.7v12.2H468.9z
		 M463.2,93c1.4,0,2.5-0.4,3.4-1.2c0.8-0.8,1.3-1.9,1.3-3.3v-1.6l-2.3,0.1c-1.8,0.1-3.1,0.4-4,0.9c-0.8,0.5-1.2,1.4-1.2,2.5
		c0,0.8,0.2,1.4,0.7,1.9C461.5,92.8,462.2,93,463.2,93z"/>
	<path fill="#FFFFFF" d="M493.7,95.9c-2.8,0-5-0.8-6.6-2.5s-2.4-3.9-2.4-6.8c0-3,0.7-5.3,2.2-7c1.5-1.7,3.5-2.5,6.1-2.5c2.4,0,4.3,0.7,5.7,2.2
		c1.4,1.5,2.1,3.5,2.1,6v2.1h-12.1c0.1,1.8,0.5,3.1,1.4,4.1c0.9,0.9,2.2,1.4,3.8,1.4c1.1,0,2.1-0.1,3-0.3c0.9-0.2,1.9-0.5,3-1v3.1
		c-0.9,0.4-1.9,0.8-2.9,1C496.1,95.8,495,95.9,493.7,95.9z M493,80.1c-1.2,0-2.2,0.4-2.9,1.2c-0.7,0.8-1.2,1.9-1.3,3.4h8.2
		c0-1.5-0.4-2.6-1.1-3.4S494.2,80.1,493,80.1z"/>
	<path fill="#FFFFFF" d="M521.1,95.6h-3.9V84.5c0-1.4-0.3-2.4-0.8-3.1s-1.5-1-2.7-1c-1.6,0-2.8,0.5-3.6,1.4c-0.8,1-1.1,2.6-1.1,4.8v9h-3.9V77.5h3
		l0.5,2.4h0.2c0.5-0.9,1.3-1.5,2.3-2c1-0.5,2.1-0.7,3.3-0.7c4.4,0,6.5,2.2,6.5,6.6V95.6z"/>
	<path fill="#FFFFFF" d="M542.5,95.9c-2.7,0-4.8-0.8-6.3-2.4c-1.4-1.6-2.1-3.9-2.1-6.9c0-3.1,0.7-5.4,2.2-7c1.5-1.6,3.7-2.5,6.5-2.5
		c1.9,0,3.6,0.4,5.2,1.1l-1.2,3.1c-1.6-0.6-3-1-4-1c-3.1,0-4.7,2.1-4.7,6.3c0,2,0.4,3.6,1.2,4.6c0.8,1,1.9,1.5,3.4,1.5
		c1.7,0,3.3-0.4,4.9-1.3v3.4c-0.7,0.4-1.4,0.7-2.2,0.9S543.7,95.9,542.5,95.9z"/>
	<path fill="#FFFFFF" d="M563.2,95.6l-0.8-2.5h-0.1c-0.9,1.1-1.8,1.9-2.6,2.3c-0.9,0.4-2,0.6-3.4,0.6c-1.8,0-3.2-0.5-4.2-1.4c-1-1-1.5-2.3-1.5-4.1
		c0-1.9,0.7-3.3,2.1-4.2c1.4-1,3.5-1.5,6.4-1.6l3.1-0.1v-1c0-1.2-0.3-2-0.8-2.6c-0.5-0.6-1.4-0.9-2.5-0.9c-0.9,0-1.8,0.1-2.7,0.4
		s-1.7,0.6-2.5,1l-1.2-2.8c1-0.5,2.1-0.9,3.2-1.2c1.2-0.3,2.3-0.4,3.3-0.4c2.3,0,4.1,0.5,5.2,1.5c1.2,1,1.8,2.6,1.8,4.7v12.2H563.2z
		 M557.5,93c1.4,0,2.5-0.4,3.4-1.2c0.8-0.8,1.3-1.9,1.3-3.3v-1.6l-2.3,0.1c-1.8,0.1-3.1,0.4-4,0.9c-0.8,0.5-1.2,1.4-1.2,2.5
		c0,0.8,0.2,1.4,0.7,1.9C555.8,92.8,556.5,93,557.5,93z"/>
	<path fill="#FFFFFF" d="M586.7,95.6h-3.9V84.4c0-1.4-0.3-2.4-0.8-3.1c-0.5-0.7-1.3-1-2.5-1c-1.5,0-2.6,0.5-3.3,1.5c-0.7,1-1,2.6-1,4.8v9h-3.9V77.5
		h3l0.5,2.4h0.2c0.5-0.9,1.2-1.5,2.2-2c1-0.5,2-0.7,3.2-0.7c2.8,0,4.6,1,5.5,2.9h0.3c0.5-0.9,1.3-1.6,2.3-2.1c1-0.5,2.1-0.8,3.3-0.8
		c2.2,0,3.7,0.5,4.7,1.6c1,1.1,1.5,2.8,1.5,5v11.8h-3.9V84.4c0-1.4-0.3-2.4-0.8-3.1c-0.5-0.7-1.4-1-2.5-1c-1.5,0-2.6,0.5-3.3,1.4
		c-0.7,0.9-1,2.4-1,4.3V95.6z"/>
	<path fill="#FFFFFF" d="M603.3,72.7c0-0.7,0.2-1.2,0.6-1.6c0.4-0.4,0.9-0.6,1.6-0.6c0.7,0,1.2,0.2,1.6,0.6c0.4,0.4,0.6,0.9,0.6,1.6
		c0,0.7-0.2,1.2-0.6,1.6c-0.4,0.4-0.9,0.6-1.6,0.6c-0.7,0-1.2-0.2-1.6-0.6C603.4,73.8,603.3,73.3,603.3,72.7z M607.3,95.6h-3.9V77.5
		h3.9V95.6z"/>
	<path fill="#FFFFFF" d="M628.8,95.6H625V84.5c0-1.4-0.3-2.4-0.8-3.1s-1.5-1-2.7-1c-1.6,0-2.8,0.5-3.6,1.4c-0.8,1-1.1,2.6-1.1,4.8v9h-3.9V77.5h3
		l0.5,2.4h0.2c0.5-0.9,1.3-1.5,2.3-2c1-0.5,2.1-0.7,3.3-0.7c4.4,0,6.5,2.2,6.5,6.6V95.6z"/>
	<path fill="#FFFFFF" d="M650.3,86.5c0,3-0.8,5.3-2.3,6.9c-1.5,1.7-3.6,2.5-6.4,2.5c-1.7,0-3.2-0.4-4.5-1.1c-1.3-0.8-2.3-1.9-3-3.3
		c-0.7-1.4-1.1-3.1-1.1-5c0-2.9,0.8-5.2,2.3-6.9c1.5-1.7,3.6-2.5,6.4-2.5c2.6,0,4.7,0.8,6.2,2.5C649.5,81.4,650.3,83.6,650.3,86.5z
		 M637.1,86.5c0,4.2,1.5,6.3,4.6,6.3c3.1,0,4.6-2.1,4.6-6.3c0-4.1-1.5-6.2-4.6-6.2c-1.6,0-2.8,0.5-3.5,1.6S637.1,84.5,637.1,86.5z"
		/>
	<path fill="#FFFFFF" d="M654.1,93.6c0-0.8,0.2-1.4,0.6-1.8s1-0.6,1.8-0.6c0.8,0,1.4,0.2,1.8,0.7c0.4,0.4,0.6,1,0.6,1.8c0,0.8-0.2,1.4-0.6,1.8
		s-1,0.7-1.8,0.7c-0.8,0-1.4-0.2-1.8-0.7C654.4,95,654.1,94.4,654.1,93.6z M658.1,88.3h-2.9l-0.9-16.7h4.5L658.1,88.3z"/>
</g>
</svg>
